<svg xmlns="http://www.w3.org/2000/svg">
    <symbol id="doosan_vertical" width="88px" height="88px" viewBox="0 0 88 88">
        <g>
            <path fill="#4C6EF5" d="M46.374 10.167l1.356 15.251-1.356 15.251h-4.748L40.27 25.42l1.356-15.252h4.748zM28.74 0l2.035 20.335-2.035 20.334h-5.425V0h5.425zm35.945 0v40.67H59.26l-2.035-20.335L59.26 0h5.425z" transform="translate(-143 -100) translate(143 100)"/>
            <path fill="#123" fill-rule="nonzero" d="M6.684 47.45c2.555 0 4.658 2.04 4.77 4.578l.005.213v7.163c0 2.564-2.034 4.697-4.563 4.81l-.212.006H0V47.45h6.684zm15.324 0c2.578 0 4.66 2.018 4.77 4.576l.005.215v7.163c0 2.588-2.034 4.699-4.563 4.81l-.212.006h-1.91c-2.555 0-4.658-2.064-4.77-4.603l-.004-.213v-7.163c0-2.564 2.034-4.675 4.562-4.787l.212-.005h1.91zm15.256 0c2.578 0 4.66 2.018 4.77 4.576l.004.215v7.163c0 2.588-2.034 4.699-4.562 4.81l-.212.006h-1.91c-2.555 0-4.658-2.064-4.77-4.603l-.004-.213v-7.163c0-2.564 2.033-4.675 4.562-4.787l.212-.005h1.91zm14.918 0c2.721 0 4.941 2.203 4.941 4.935v.479h-3.342v-.48c0-.862-.716-1.58-1.6-1.58H51.06c-1.05 0-1.576.43-1.576 1.101 0 1.653 7.878 2.516 7.878 7.619 0 2.66-2.148 4.696-4.942 4.696h-1.6c-2.72 0-4.917-2.205-4.917-4.936v-.718h3.342v.718c0 .863.717 1.582 1.576 1.582h1.6c.978 0 1.599-.575 1.599-1.342 0-2.707-7.878-2.731-7.878-7.619 0-2.61 2.077-4.456 4.918-4.456zm16.234 0l4.202 11.475v5.295h-3.342v-2.923H64.5v2.923H61.16v-5.295l4.202-11.476h3.055zm12.34 0l3.843 9.942v-9.943h3.343v16.77h-4.274l-3.843-9.942v9.943h-3.342V47.45h4.273zM6.645 50.775H3.322v10.049h3.323c.737 0 1.348-.574 1.417-1.301l.007-.138v-7.17c0-.792-.617-1.44-1.424-1.44zm15.391 0h-1.898c-.76 0-1.35.574-1.418 1.301l-.006.138v7.17c0 .746.567 1.363 1.287 1.433l.137.007h1.898c.737 0 1.348-.574 1.418-1.301l.006-.138v-7.17c0-.816-.617-1.44-1.424-1.44zm15.256 0h-1.898c-.76 0-1.351.574-1.418 1.301l-.006.138v7.17c0 .746.567 1.363 1.287 1.433l.137.007h1.898c.737 0 1.348-.574 1.417-1.301l.007-.138v-7.17c0-.816-.617-1.44-1.424-1.44zm29.63 2.173l-1.83 4.956h3.661l-1.83-4.956zM10.83 71l2.555 5.582L15.94 71h3.176v16.77h-3.343v-8.888l-1.433 3.09h-1.91l-1.432-3.09v8.888H7.655V71h3.175zm18.837 0c2.579 0 4.66 2.018 4.77 4.577l.005.214v7.163c0 2.588-2.034 4.699-4.563 4.811l-.212.005h-1.91c-2.556 0-4.66-2.064-4.77-4.603l-.006-.213v-7.163c0-2.564 2.035-4.675 4.564-4.787l.212-.004h1.91zm20.034 0v3.354h-4.059V87.77H42.3V74.354H38.24V71h11.461zm10.552 0c2.578 0 4.66 2.018 4.77 4.577l.005.214v7.163c0 2.588-2.034 4.699-4.564 4.811l-.211.005h-1.91c-2.556 0-4.66-2.064-4.771-4.603l-.005-.213v-7.163c0-2.564 2.034-4.675 4.563-4.787l.212-.004h1.91zm15.258 0c2.58 0 4.66 2.018 4.771 4.577l.005.214v1.438c0 1.885-1.056 3.484-2.62 4.288l-.198.096 2.818 6.157H76.61l-2.603-5.75H72.17v5.75h-3.343V71h6.685zm-45.816 3.394h-1.899c-.76 0-1.35.574-1.417 1.301l-.007.138v7.171c0 .745.568 1.362 1.288 1.432l.136.007h1.9c.736 0 1.348-.574 1.417-1.3l.006-.139v-7.17c0-.816-.617-1.44-1.424-1.44zm30.518 0h-1.899c-.76 0-1.35.574-1.418 1.301l-.006.138v7.171c0 .745.568 1.362 1.287 1.432l.137.007h1.899c.737 0 1.348-.574 1.418-1.3l.006-.139v-7.17c0-.816-.617-1.44-1.424-1.44zm15.259 0h-3.323v4.278h3.323c.76 0 1.35-.548 1.418-1.285l.006-.141V75.82c0-.808-.617-1.426-1.424-1.426z" transform="translate(-143 -100) translate(143 100)"/>
        </g>
    </symbol>

    <symbol id="kakao" viewBox="0 0 24 24">
        <defs>
            <path id="r182hix9ga" d="M0 0.585L19.264 0.585 19.264 20.652 0 20.652z"/>
        </defs>
        <g fill="current" fill-rule="evenodd">
            <g transform="translate(3 2)">
                <mask id="f9t0u27cbb" fill="#fff">
                    <use href="#r182hix9ga"/>
                </mask>
                <path fill="#123" d="M15.605 12.77h-1.28V9.928c0-.655-.387-1.006-.982-1.006-.664 0-1.091.4-1.091 1.211v2.639h-1.28V5.816h1.28v2.616c.307-.46.804-.684 1.478-.684.546 0 .992.176 1.34.537.357.362.535.85.535 1.486v3zm-9.202-1.186c.945 0 1.752-.557 1.995-1.417h1.397c-.342 1.655-1.65 2.74-3.392 2.74-2.024 0-3.63-1.487-3.63-3.556 0-2.07 1.606-3.557 3.63-3.557 1.76 0 3.077 1.106 3.402 2.79H8.412C8.2 7.668 7.365 7.098 6.403 7.098c-1.36 0-2.266.956-2.266 2.253 0 1.296 1.03 2.233 2.266 2.233zM9.633.585C4.312.585 0 4.515 0 9.36c0 3.58 1.522 5.288 3.607 6.846l.01.004v4.2c0 .199.229.313.39.194l3.653-2.672.079.033c.612.112 1.245.17 1.893.17 5.32 0 9.632-3.928 9.632-8.775 0-4.846-4.312-8.775-9.632-8.775z" mask="url(#f9t0u27cbb)"/>
            </g>
        </g>
    </symbol>

    <symbol id="phone" viewBox="0 0 24 24">
        <path fill="current" fill-rule="nonzero" d="M20 15.5c-1.25 0-2.45-.2-3.57-.57-.35-.11-.74-.03-1.02.24l-2.2 2.2c-2.83-1.44-5.15-3.75-6.59-6.59l2.2-2.21c.28-.26.36-.65.25-1C8.7 6.45 8.5 5.25 8.5 4c0-.55-.45-1-1-1H4c-.55 0-1 .45-1 1 0 9.39 7.61 17 17 17 .55 0 1-.45 1-1v-3.5c0-.55-.45-1-1-1zM19 12h2c0-4.97-4.03-9-9-9v2c3.87 0 7 3.13 7 7zm-4 0h2c0-2.76-2.24-5-5-5v2c1.66 0 3 1.34 3 3z"/>
    </symbol>
</svg>
